<?xml version="1.0" encoding="UTF-8"?>
<svg xmlns="http://www.w3.org/2000/svg" id="a" viewBox="0 0 865.76 682.89">
  <g>
    <g id="b">
      <path d="M695,81.08c-1.25-3.94-3.03-7.68-5.3-11.13-2.32-3.48-5.96-5.85-10.08-6.58-4.1-.5-8.64,1.71-9.99,5.63-.59-8.81-1.83-17.86-6.25-25.52s-12.64-13.67-21.46-13.12c-8.38,.5-15.58,6.68-19.47,14.01s-5.31,15.74-6.62,23.96c-3.14-3.86-9.81-2.65-13.09,1.11-3.28,3.76-4.12,8.99-4.82,13.93h99.2l-2.12-2.29Z" fill="#f5f5f5"></path>
      <path d="M151.94,655.69s106.69-129.9,149.76-146.44c83.78-32.16,162.35,62.53,228.32,60.38,65.97-2.15,80.64-19.05,127.64-8.44,50.52,11.4,127.08,94.49,127.08,94.49H151.94Z" fill="#f5f5f5"></path>
      <path d="M497.17,457.2c-1.26-3.91-3.05-7.63-5.33-11.05-2.32-3.47-5.97-5.83-10.08-6.52-4.08-.5-8.64,1.7-9.92,5.57-.58-8.74-1.81-17.73-6.19-25.32s-12.56-13.57-21.31-13.03c-8.25,.5-15.32,6.64-19.24,13.91-3.92,7.27-5.28,15.62-6.57,23.79-3.12-3.84-9.73-2.64-12.96,1.09s-4.09,8.93-4.78,13.82h98.47l-2.09-2.28Z" fill="#ebebeb"></path>
      <path d="M609.53,407.27c-1.27-3.91-3.06-7.62-5.33-11.05-2.32-3.46-5.97-5.82-10.08-6.52-4.08-.5-8.64,1.7-9.91,5.57-.59-8.74-1.83-17.73-6.21-25.32s-12.56-13.57-21.31-12.96c-8.25,.5-15.31,6.64-19.24,13.91-3.93,7.27-5.27,15.62-6.57,23.79-3.12-3.83-9.73-2.64-12.96,1.09s-4.09,8.93-4.78,13.82h98.47l-2.09-2.35Z" fill="#f5f5f5"></path>
      <path d="M173.3,213.05c-1.37-4.23-3.31-8.25-5.76-11.95-2.51-3.72-6.42-6.27-10.84-7.06-4.41-.53-9.29,1.84-10.71,6.03-.63-9.45-1.97-19.15-6.71-27.36s-13.57-14.66-23.04-14.08c-8.91,.62-16.5,7.17-20.82,15.02s-5.76,16.89-7.08,25.72c-3.38-4.16-10.53-2.88-14.05,1.18s-4.42,9.65-5.17,14.95h106.43l-2.23-2.45Z" fill="#ebebeb"></path>
      <path d="M781.72,186.18c-1.07-3.32-2.59-6.48-4.52-9.39-1.96-2.94-5.04-4.95-8.52-5.56-3.56-.51-7.03,1.44-8.44,4.75-.49-7.44-1.54-15.06-5.27-21.6s-10.67-11.52-18.1-11.07c-7.03,.43-13.03,5.64-16.37,11.82s-4.48,13.28-5.57,20.16c-2.66-3.27-8.28-2.25-11.05,.92s-3.48,7.59-4.08,11.75h83.71l-1.79-1.79Z" fill="#ebebeb"></path>
      <path d="M319.76,185.09c-.82-2.51-1.97-4.91-3.43-7.11-1.5-2.22-3.83-3.74-6.47-4.2-2.7-.39-5.32,1.09-6.38,3.6-.37-5.63-1.17-11.42-3.99-16.3s-8.08-8.73-13.71-8.38c-5.31,.32-9.86,4.32-12.38,8.94-2.52,4.62-3.4,10.08-4.22,15.31-2.02-2.46-6.26-1.68-8.37,.71s-2.64,5.76-3.08,8.9h63.36l-1.34-1.45Z" fill="#ebebeb"></path>
      <path d="M766.21,331.84c-.65-2.04-1.58-3.98-2.76-5.76-1.21-1.8-3.09-3.03-5.23-3.41-2.18-.32-4.29,.86-5.17,2.88-.3-4.55-.95-9.23-3.24-13.19s-6.54-7.07-11.1-6.8c-4.32,.27-7.98,3.47-10.08,7.2-1.83,3.91-2.99,8.1-3.43,12.4-1.63-2-5.07-1.37-6.77,.56s-2.13,4.65-2.49,7.2h51.31l-1.04-1.08Z" fill="#ebebeb"></path>
      <path d="M494.73,162.54c-.66-2.04-1.59-3.98-2.78-5.76-1.2-1.8-3.09-3.03-5.23-3.4-2.17-.32-4.29,.86-5.16,2.88-.32-4.56-.95-9.24-3.24-13.21s-6.54-7.06-11.1-6.78c-4.32,.26-7.98,3.46-10.08,7.2-1.83,3.91-2.99,8.1-3.43,12.4-1.63-2-5.07-1.44-6.77,.58s-2.13,4.65-2.49,7.2h51.31l-1.04-1.11Z" fill="#ebebeb"></path>
      <path d="M228.96,598.75c-.65,.22-14.17,17.48-13.67,35.74s2.32,20.48,2.32,20.48l3.56,.45s7.47-20.32,8.88-33.75c.9-7.65,.53-15.39-1.09-22.91Z" fill="#ebebeb"></path>
      <path d="M216.28,592.76c-.59,.33-10.81,20.88-7.01,40.61,3.8,19.73,6.02,21.87,6.02,21.87h3.6s3.69-23.04,2.65-37.79c-.5-8.45-2.28-16.77-5.26-24.7Z" fill="#e0e0e0"></path>
      <path d="M225.3,600.28s2.4,26.35,.99,33.31-7.42,21.72-7.42,21.72h2.88c5.17-7.57,9.91-15.43,14.2-23.53,5.17-10.44-4.05-26.35-10.66-31.49Z" fill="#e0e0e0"></path>
      <path d="M196.84,595.14c-.4,.66-11.22,23.2-4.61,34.14s17.84,26.02,17.84,26.02h5.21s-16.04-25.53-16.04-33.97-2.4-26.19-2.4-26.19Z" fill="#ebebeb"></path>
      <path d="M239.98,595.14c.4,.66,11.22,23.2,4.61,34.14s-17.84,26.02-17.84,26.02h-5.21s16-25.53,16-33.97,2.45-26.19,2.45-26.19Z" fill="#ebebeb"></path>
      <path d="M204.25,595.14s-3.1,18.03-1.57,30.63c1.73,13.74,11.81,28.92,11.81,28.92l4.41-7.01-4.81-27.68s-3.76-16.78-9.84-24.85Z" fill="#e0e0e0"></path>
      <path d="M180.61,608.89c-.2,.5-.6,20.06,6.41,28.01s23.04,18.4,23.04,18.4l5.76-.07s-22.67-24.78-26.68-31.18-8.52-15.16-8.52-15.16Z" fill="#e0e0e0"></path>
      <path d="M251.35,608.89s-8.06,20.88-12.23,25.2-18.43,21.21-18.43,21.21h7.47s14.76-18.07,19.57-23.2,3.61-23.21,3.61-23.21Z" fill="#e0e0e0"></path>
      <path d="M496.23,578.45c-.89,.32-19.24,23.76-18.56,48.56,.68,24.8,3.23,27.81,3.23,27.81l4.84,.6s10.08-27.59,12.05-45.84c1.21-10.39,.68-20.91-1.56-31.13Z" fill="#ebebeb"></path>
      <path d="M479.01,570.41c-.82,.45-14.7,28.35-9.52,55.14,5.18,26.78,8.16,29.71,8.16,29.71h4.9s5-31.29,3.59-51.32c-.68-11.47-3.09-22.77-7.13-33.52Z" fill="#e0e0e0"></path>
      <path d="M491.26,580.53s3.25,35.78,1.35,45.23-10.08,29.49-10.08,29.49h3.84s12.21-17.78,19.28-31.95c7.07-14.17-5.43-35.8-14.4-42.77Z" fill="#e0e0e0"></path>
      <path d="M452.61,573.55c-.55,.91-15.25,31.52-6.26,46.37s24.22,35.34,24.22,35.34h7.08s-21.77-34.66-21.77-46.08-3.27-35.63-3.27-35.63Z" fill="#ebebeb"></path>
      <path d="M511.14,573.55c.55,.91,15.24,31.52,6.25,46.37s-24.22,35.34-24.22,35.34h-7.07s21.77-34.66,21.77-46.08,3.27-35.63,3.27-35.63Z" fill="#ebebeb"></path>
      <path d="M462.68,573.55s-4.2,24.48-2.13,41.6c2.28,18.72,16.01,39.27,16.01,39.27l5.99-9.52-6.54-37.58s-5.08-22.8-13.33-33.77Z" fill="#e0e0e0"></path>
      <path d="M430.57,592.24c-.27,.68-.82,27.23,8.64,38.03s31.29,24.98,31.29,24.98l7.93-.1s-30.66-33.6-36.16-42.32c-5.5-8.73-11.71-20.59-11.71-20.59Z" fill="#e0e0e0"></path>
      <path d="M526.64,592.24s-10.89,28.35-16.6,34.2-25.04,28.8-25.04,28.8h10.08s20.06-24.48,26.6-31.51,4.97-31.49,4.97-31.49Z" fill="#e0e0e0"></path>
      <path d="M720.4,587.62c-.78,.27-16.95,20.92-16.34,42.77s2.76,24.48,2.76,24.48l4.32,.53s8.91-24.31,10.61-40.32c1.07-9.17,.62-18.45-1.35-27.46Z" fill="#ebebeb"></path>
      <path d="M705.24,580.53c-.72,.39-12.96,24.98-8.4,48.57,4.56,23.59,7.2,26.17,7.2,26.17h4.32s4.41-27.55,3.17-45.2c-.61-10.1-2.74-20.06-6.29-29.53Z" fill="#e0e0e0"></path>
      <path d="M716.02,589.45s2.88,31.52,1.2,39.86-8.87,25.92-8.87,25.92h3.38c6.2-9.05,11.87-18.45,16.99-28.15,6.24-12.44-4.8-31.44-12.7-37.63Z" fill="#e0e0e0"></path>
      <path d="M681.98,583.31c-.48,.79-13.42,27.75-5.52,40.84,7.91,13.09,21.34,31.12,21.34,31.12h6.29s-19.18-30.53-19.18-40.64-2.94-31.32-2.94-31.32Z" fill="#ebebeb"></path>
      <path d="M733.58,583.31c.49,.79,13.44,27.75,5.52,40.84-7.92,13.09-21.34,31.12-21.34,31.12h-6.22s19.17-30.53,19.17-40.64,2.88-31.32,2.88-31.32Z" fill="#ebebeb"></path>
      <path d="M690.85,583.31s-3.72,21.6-1.87,36.63c1.99,16.45,14.1,34.56,14.1,34.56l5.27-8.4-5.76-33.12s-4.48-20.02-11.74-29.68Z" fill="#e0e0e0"></path>
      <path d="M662.55,599.76c-.23,.6-.72,23.99,7.68,33.51,8.4,9.52,27.58,22,27.58,22l6.98-.09s-27.13-29.65-31.93-37.28c-4.8-7.63-10.31-18.14-10.31-18.14Z" fill="#e0e0e0"></path>
      <path d="M747.18,599.76s-9.59,24.98-14.62,30.14-22.06,25.37-22.06,25.37h8.94s17.67-21.6,23.43-27.75,4.31-27.76,4.31-27.76Z" fill="#e0e0e0"></path>
    </g>
    <g id="c">
      <circle cx="129.42" cy="75.5" r="48.3" fill="#0071f2"></circle>
      <g opacity=".9">
        <circle cx="129.42" cy="75.5" r="48.3" fill="#fff"></circle>
      </g>
      <circle cx="129.42" cy="75.51" r="43.09" fill="#0071f2"></circle>
      <g opacity=".6">
        <circle cx="129.42" cy="75.51" r="43.09" fill="#fff"></circle>
      </g>
      <circle cx="129.42" cy="75.51" r="35.84" fill="#0071f2"></circle>
      <g opacity=".3">
        <circle cx="129.42" cy="75.51" r="35.84" fill="#fff"></circle>
      </g>
      <circle cx="129.42" cy="75.51" r="28.7" fill="#0071f2"></circle>
    </g>
    <g>
      <g>
        <g>
          <path d="M224.44,162.2s65.88-2.18,100.18,20.14l90.28,45.97,5-17.66s-70.78-143.19-195.45-48.46Z" fill="#0071f2"></path>
          <g opacity=".2">
            <path d="M413.1,222.15c-.1,0-.19-.05-.24-.14-22.87-41.38-52.19-66.92-87.14-75.91-27.61-7.1-53.63-2.28-70.6,3.01-18.4,5.73-30.42,13.25-30.53,13.32-.13,.08-.3,.04-.38-.09-.08-.13-.04-.29,.09-.38,.12-.08,12.19-7.62,30.64-13.38,17.04-5.31,43.17-10.15,70.91-3.02,35.11,9.03,64.55,34.65,87.49,76.18,.07,.13,.02,.3-.11,.37-.04,.02-.09,.03-.13,.03Z"></path>
          </g>
          <path d="M414.9,228.32s-6.98-127.64,134.57-113.48l-49,44.64-77.31,71.87-8.26-3.03Z" fill="#0071f2"></path>
          <g opacity=".2">
            <path d="M414.9,228.32s-6.98-127.64,134.57-113.48l-49,44.64-77.31,71.87-8.26-3.03Z" fill="#fff"></path>
          </g>
          <path d="M603.91,233.52c-2.11-42.28-35.09-61.94-57.94-71.08-18.12-7.25-37.98-9.21-57.06-5.1-58.52,12.6-66.3,70.74-66.3,70.74l3.81,3.27s15.45-32.03,60.53-27.72c0,0,54.89-12.57,86.46,40.24,0,0,13.61,23.96,9.8,57.17,0,0,22.87-23.96,20.69-67.51Z" fill="#0071f2"></path>
          <g opacity=".2">
            <path d="M593.57,263.19s-.01,0-.02,0c-.15-.01-.26-.14-.25-.29,2.52-35.59-14.72-56.85-29.62-68.42-16.17-12.55-33.16-16.73-33.33-16.77-41.49-9.53-67.96,5.19-82.85,19.22-16.15,15.21-22.57,32.92-22.63,33.1-.05,.14-.21,.21-.35,.17-.14-.05-.22-.21-.17-.35,.06-.18,6.52-17.99,22.75-33.29,9.54-8.99,20.54-15.38,32.7-18.98,15.19-4.5,32.24-4.63,50.66-.4,.17,.04,17.26,4.24,33.52,16.86,15.02,11.65,32.38,33.06,29.84,68.9-.01,.14-.13,.25-.27,.25Z"></path>
          </g>
          <path d="M430.78,237.33l2.32,5.03s22.03-18.52,42.52-15.04l-6.19-9.04-7.08-4.9-20.69,5.99s-8.17,6.53-10.89,17.97Z" fill="#0071f2"></path>
          <g opacity=".3">
            <path d="M430.78,237.33l2.32,5.03s22.03-18.52,42.52-15.04l-6.19-9.04-7.08-4.9-20.69,5.99s-8.17,6.53-10.89,17.97Z" fill="#fff"></path>
          </g>
          <path d="M554.37,294.5c7.45-71.51-50.63-87.65-50.63-87.65-56.08-16.33-77.31,24.5-77.31,24.5l4.36,5.99s26.13-39.2,60.43,5.99c0,0,35.39,40.83,17.97,130.67,0,0,39.74-27.22,45.19-79.49Z" fill="#0071f2"></path>
          <g opacity=".2">
            <path d="M554.37,294.5c7.45-71.51-50.63-87.65-50.63-87.65-56.08-16.33-77.31,24.5-77.31,24.5l4.36,5.99s26.13-39.2,60.43,5.99c0,0,35.39,40.83,17.97,130.67,0,0,39.74-27.22,45.19-79.49Z" fill="#fff"></path>
          </g>
          <g opacity=".2">
            <path d="M514.62,361.73s-.08,0-.12-.03c-.14-.06-.19-.23-.13-.36,14-29.22,17.89-54,18.69-69.64,.84-16.55-2.89-32.6-10.8-46.42-11.86-20.72-29.13-30-41.54-34.13-13.45-4.48-24.24-4.05-24.35-4.05-.14,0-.28-.11-.28-.26,0-.15,.11-.28,.26-.28,.11,0,10.98-.44,24.52,4.07,12.5,4.16,29.91,13.5,41.86,34.38,7.96,13.9,11.71,30.06,10.87,46.72-.8,15.69-4.7,40.54-18.74,69.84-.05,.1-.14,.15-.25,.15Z" fill="#fff"></path>
          </g>
          <polygon points="408.73 239.78 387.2 653.11 451.2 653.01 430.51 240.87 408.73 239.78" fill="#2f2e41"></polygon>
          <path d="M228.79,292.86s28.54-56.47,91.85-66.89l94.5-2.05s-39.89-62.82-115.57-42.13c0,0-80.58,24.5-70.78,111.07Z" fill="#0071f2"></path>
          <g opacity=".2">
            <path d="M228.79,292.86s28.54-56.47,91.85-66.89l94.5-2.05s-39.89-62.82-115.57-42.13c0,0-80.58,24.5-70.78,111.07Z" fill="#fff"></path>
          </g>
          <g opacity=".2">
            <path d="M244.04,249.04s-.1-.01-.15-.04c-.13-.08-.16-.25-.08-.38,.15-.23,15.09-23.35,41.16-39.24,15.32-9.34,31.42-14.39,47.87-15.03,20.54-.79,41.69,5.37,62.82,18.3,.13,.08,.17,.25,.09,.37-.08,.13-.25,.17-.37,.09-47.63-29.15-86.16-17.87-110.1-3.28-25.96,15.82-40.85,38.85-41,39.08-.05,.08-.14,.13-.23,.13Z" fill="#fff"></path>
          </g>
          <path d="M311.55,337.51s10.62-127.23,95.41-104.99l11.57-6.62s-44.92-38.11-92.83-5.44c0,0-59.34,43.56-14.16,117.05Z" fill="#0071f2"></path>
          <g opacity=".2">
            <path d="M311.55,337.78c-.11,0-.21-.07-.26-.18-.06-.16-5.74-15.8-6.41-36.49-.62-19.11,3.02-46.58,23.89-68.86,.27-.28,26.95-27.66,68.43-17.99,.15,.03,.24,.18,.2,.33s-.18,.24-.33,.2c-41.17-9.6-67.65,17.56-67.91,17.84-20.74,22.14-24.36,49.45-23.74,68.45,.67,20.61,6.32,36.19,6.38,36.34,.05,.14-.02,.3-.16,.35-.03,.01-.06,.02-.09,.02Z"></path>
          </g>
          <circle cx="403.56" cy="240.6" r="15.24" fill="#d1d3d4"></circle>
          <circle cx="432.41" cy="241.14" r="15.24" fill="#d1d3d4"></circle>
          <circle cx="418.53" cy="240.87" r="14.97" fill="#e6e7e8"></circle>
        </g>
        <g>
          <g opacity=".2">
            <path d="M292.91,451.24c.18,.16,.28,.25,.28,.25l3.74-9.97-4.99-8.73,6.65,4.57,2.49-10.8-8.73-12.88,9.97,7.89,.42-4.57-4.99-4.99,6.23,2.91-.42-22.02-7.06-7.06,7.06,1.66c.76-12.1-7.43-35.55-8.91-39.68-11.32,32.15-5.89,78.88-1.75,103.41Z" fill="#fff"></path>
          </g>
          <path d="M294.66,347.83c55.49-28.04,57.11-54.23,57.11-54.23,0,0-10.39-4.99-11.22-5.4s12.88,.83,12.88,.83c4.57-22.44-.42-42.8-.42-42.8-6.12,9.18-27.56,24.9-38.44,32.54-7.25,5.1-12.94,12.18-16.08,20.47-8.4,22.15-3.83,48.58-3.83,48.58Z" fill="#0071f2"></path>
          <g opacity=".2">
            <path d="M294.66,347.83c55.49-28.04,57.11-54.23,57.11-54.23,0,0-10.39-4.99-11.22-5.4s12.88,.83,12.88,.83c4.57-22.44-.42-42.8-.42-42.8-6.12,9.18-27.56,24.9-38.44,32.54-7.25,5.1-12.94,12.18-16.08,20.47-8.4,22.15-3.83,48.58-3.83,48.58Z"></path>
          </g>
          <g opacity=".2">
            <path d="M294.66,347.83c-1.48-37.66,26.82-56.24,26.82-56.24,29.09-19.53,31.54-45.36,31.54-45.36-6.12,9.18-27.56,24.9-38.44,32.54-7.25,5.1-12.94,12.18-16.08,20.47-8.4,22.15-3.83,48.58-3.83,48.58Z"></path>
          </g>
          <path d="M379.61,653.01h-43.21s36.98-222.71-49.44-295.01l3.74-20.36s110.11,85.59,88.92,315.37Z" fill="#2f2e41"></path>
          <path d="M294.43,347.2c59.83,6.23,81.44-11.22,81.44-11.22l-6.23-11.63,9.97,7.89c15.39-11.16,22.59-33.73,23.57-37,.08-.26,.12-.4,.12-.4-3.74,2.91-13.3,4.16-13.3,4.16l-2.08,4.57v-4.99s-10.8,1.25-10.8,1.25l-2.91,4.57-.83-5.4-4.99,6.65,2.08-5.82c-5.4,.83-19.11,.42-19.11,.42-41.64,2.47-56.69,46.26-56.92,46.94,0,0,0,0,0,0Z" fill="#0071f2"></path>
          <g opacity=".1">
            <path d="M294.44,347.19c25.35-35.31,66.89-31.99,66.89-31.99,25.03-3.45,36.91-13.88,41.85-19.96,.08-.26,.12-.4,.12-.4-3.74,2.91-13.3,4.16-13.3,4.16l-2.08,4.57v-4.99s-10.8,1.25-10.8,1.25l-2.91,4.57-.83-5.4-4.99,6.65,2.08-5.82c-5.4,.83-19.11,.42-19.11,.42-41.64,2.47-56.69,46.26-56.92,46.94Z"></path>
          </g>
          <path d="M227.17,289.1l10.8-2.08-8.73,5.82s6.61,40.18,65.42,54.99c0,0,6.45-58.63-39.98-80.8-5.68-2.71-11.19-5.76-16.4-9.29-5.81-3.93-12.29-8.92-15.69-13.52,0,0-2.91,29.09,4.57,44.87Z" fill="#0071f2"></path>
          <g opacity=".2">
            <path d="M222.6,244.22s4.15,18.12,26.49,37.09c1.79,1.52,3.69,2.9,5.65,4.19,8.27,5.41,36.89,26.6,39.93,62.33,0,0,6.45-58.63-39.98-80.8-5.68-2.71-11.19-5.76-16.4-9.29-5.81-3.93-12.29-8.92-15.69-13.52Z"></path>
          </g>
          <path d="M164.43,294.08s6.25,20.59,29.48,36.83l11.65-8.57-6.7,11.8c19.74,11.99,50.03,20.38,95.8,13.69,0,0,0,0,0,0-.38-.8-25.96-54.53-84.11-49.58,0,0-33.24,.42-46.12-4.16Z" fill="#0071f2"></path>
          <g opacity=".2">
            <path d="M164.43,294.08s6.25,20.59,29.48,36.83l11.65-8.57-6.7,11.8c19.74,11.99,50.03,20.38,95.8,13.69,0,0,0,0,0,0-.38-.8-25.96-54.53-84.11-49.58,0,0-33.24,.42-46.12-4.16Z" fill="#fff"></path>
          </g>
          <g opacity=".2">
            <path d="M164.43,294.08s6.25,20.59,29.48,36.83l11.65-8.57-6.7,11.8c19.74,11.99,50.03,20.38,95.8,13.69,0,0,0,0,0,0-.42-.59-22.19-30.49-62.92-32.96,0,0-44.46,.42-67.31-20.78Z" fill="#fff"></path>
          </g>
          <path d="M159.86,380.09s.02,.01,.05,.04c.89,.84,15,13.68,42.34,14.09,0,0,0-8.31,4.57-14.54l.42,13.3s17.49-.37,45.3-20.2c2.93-2.09,5.73-4.36,8.39-6.78,5.53-5.02,19.19-16.13,33.75-18.17,0,0-45.89-25.49-83.7,1.1,0,0-32.41,24.51-51.11,31.16Z" fill="#0071f2"></path>
          <g opacity=".2">
            <path d="M159.86,380.09s.02,.01,.05,.04c7.98-.77,24.8-2.9,38.6-8.06,6.6-2.47,12.8-5.89,18.54-9.97,7.99-5.68,36.01-22.51,77.62-14.28,0,0-45.89-25.49-83.7,1.1,0,0-32.41,24.51-51.11,31.16Z"></path>
          </g>
          <path d="M322.69,356.34l-.42-8.73,4.99,10.8,18.7,10.39-.42-6.65,3.74,8.31,2.49,2.08,.83-12.05,5.4,15.79,16.2,9.56,1.25-13.71,4.16,17.45,22.44,12.88s-.42-7.48-1.66-14.13l-8.73-5.82,7.48,1.25s-2.08-11.22-6.65-16.2l-16.62-5.82h13.3s-3.74-4.99-3.74-4.99h-7.48s5.82-3.32,5.82-3.32c0,0-11.22-14.54-28.25-21.19l-12.05,4.16,4.57-7.06s-34.07-6.23-53.6,17.87c0,0,17.87,2.08,28.25,9.14Z" fill="#0071f2"></path>
          <g opacity=".2">
            <path d="M294.43,347.2c63.57-23.27,107.61,55.26,107.61,55.26,0,0-.42-7.48-1.66-14.13l-8.73-5.82,7.48,1.25s-2.08-11.22-6.65-16.2l-16.62-5.82h13.3s-3.74-4.99-3.74-4.99h-7.48s5.82-3.32,5.82-3.32c0,0-11.22-14.54-28.25-21.19l-12.05,4.16,4.57-7.06s-34.07-6.23-53.6,17.87Z" fill="#fff"></path>
          </g>
          <path d="M207.22,434.52s24.51,4.99,39.89-7.89l-3.32-14.13,6.23,12.05s16.2-12.88,21.19-36.98c0,0,5.71-23.57,23.46-39.74,0,0-41.51-2.09-61.48,32.92-1.1,1.93-2.03,3.96-2.84,6.03-3.67,9.39-16.73,42.07-23.12,47.75Z" fill="#0071f2"></path>
          <g opacity=".2">
            <path d="M207.22,434.52s20.36-7.89,28.67-28.25c0,0,21.56-52.06,58.77-58.44,0,0-41.51-2.09-61.48,32.92-1.1,1.93-2.03,3.96-2.84,6.03-3.67,9.39-16.73,42.07-23.12,47.75Z"></path>
          </g>
          <path d="M270.75,396.64h2.91s-2.91,4.99-2.91,4.99v4.16s7.48-4.57,8.31-5.4-7.48,10.39-7.48,10.39c.83,8.31,5.4,17.87,5.4,17.87l7.06-5.82-4.57,11.63c3.37,7.49,11.8,15.31,13.43,16.79,.18,.16,.28,.25,.28,.25l3.74-9.97-4.99-8.73,6.65,4.57,2.49-10.8-8.73-12.88,9.97,7.89,.42-4.57-4.99-4.99,6.23,2.91-.42-22.02-7.06-7.06,7.06,1.66c.76-12.1-7.43-35.55-8.91-39.68-.15-.41-.23-.63-.23-.63-12.05,10.8-17.45,24.1-17.45,24.1l6.65,.42-8.31,2.91c-5.4,11.63-4.57,22.02-4.57,22.02Z" fill="#0071f2"></path>
          <g opacity=".2">
            <path d="M270.75,396.64h2.91s-2.91,4.99-2.91,4.99v4.16s7.48-4.57,8.31-5.4-7.48,10.39-7.48,10.39c.83,8.31,5.4,17.87,5.4,17.87l7.06-5.82-4.57,11.63c3.37,7.49,11.8,15.31,13.43,16.79,.18,.16,.28,.25,.28,.25l3.74-9.97-4.99-8.73,6.65,4.57,2.49-10.8-8.73-12.88,9.97,7.89,.42-4.57-4.99-4.99,6.23,2.91-.42-22.02-7.06-7.06,7.06,1.66c.76-12.1-7.43-35.55-8.91-39.68-.15-.41-.23-.63-.23-.63-12.05,10.8-17.45,24.1-17.45,24.1l6.65,.42-8.31,2.91c-5.4,11.63-4.57,22.02-4.57,22.02Z" fill="#fff"></path>
          </g>
        </g>
        <g>
          <g opacity=".2">
            <path d="M549.54,451.24c-.18,.16-.28,.25-.28,.25l-3.74-9.97,4.99-8.73-6.65,4.57-2.49-10.8,8.73-12.88-9.97,7.89-.42-4.57,4.99-4.99-6.23,2.91,.42-22.02,7.06-7.06-7.06,1.66c-.76-12.1,7.43-35.55,8.91-39.68,11.32,32.15,5.89,78.88,1.75,103.41Z" fill="#fff"></path>
          </g>
          <path d="M547.78,347.83c-55.49-28.04-57.11-54.23-57.11-54.23,0,0,10.39-4.99,11.22-5.4s-12.88,.83-12.88,.83c-4.57-22.44,.42-42.8,.42-42.8,6.12,9.18,27.56,24.9,38.44,32.54,7.25,5.1,12.94,12.18,16.08,20.47,8.4,22.15,3.83,48.58,3.83,48.58Z" fill="#0071f2"></path>
          <g opacity=".2">
            <path d="M547.78,347.83c-55.49-28.04-57.11-54.23-57.11-54.23,0,0,10.39-4.99,11.22-5.4s-12.88,.83-12.88,.83c-4.57-22.44,.42-42.8,.42-42.8,6.12,9.18,27.56,24.9,38.44,32.54,7.25,5.1,12.94,12.18,16.08,20.47,8.4,22.15,3.83,48.58,3.83,48.58Z"></path>
          </g>
          <g opacity=".2">
            <path d="M547.78,347.83c1.48-37.66-26.82-56.24-26.82-56.24-29.09-19.53-31.54-45.36-31.54-45.36,6.12,9.18,27.56,24.9,38.44,32.54,7.25,5.1,12.94,12.18,16.08,20.47,8.4,22.15,3.83,48.58,3.83,48.58Z"></path>
          </g>
          <path d="M462.84,653.01h43.21s-36.98-222.71,49.44-295.01l-3.74-20.36s-110.11,85.59-88.92,315.37Z" fill="#2f2e41"></path>
          <path d="M548.01,347.2c-59.83,6.23-81.44-11.22-81.44-11.22l6.23-11.63-9.97,7.89c-15.39-11.16-22.59-33.73-23.57-37-.08-.26-.12-.4-.12-.4,3.74,2.91,13.3,4.16,13.3,4.16l2.08,4.57v-4.99l10.8,1.25,2.91,4.57,.83-5.4,4.99,6.65-2.08-5.82c5.4,.83,19.11,.42,19.11,.42,41.64,2.47,56.69,46.26,56.92,46.94,0,0,0,0,0,0Z" fill="#0071f2"></path>
          <g opacity=".1">
            <path d="M548.01,347.19c-25.35-35.31-66.89-31.99-66.89-31.99-25.03-3.45-36.91-13.88-41.85-19.96-.08-.26-.12-.4-.12-.4,3.74,2.91,13.3,4.16,13.3,4.16l2.08,4.57v-4.99l10.8,1.25,2.91,4.57,.83-5.4,4.99,6.65-2.08-5.82c5.4,.83,19.11,.42,19.11,.42,41.64,2.47,56.69,46.26,56.92,46.94Z"></path>
          </g>
          <path d="M615.28,289.1l-10.8-2.08,8.73,5.82s-6.61,40.18-65.42,54.99c0,0-6.45-58.63,39.98-80.8,5.68-2.71,11.19-5.76,16.4-9.29,5.81-3.93,12.29-8.92,15.69-13.52,0,0,2.91,29.09-4.57,44.87Z" fill="#0071f2"></path>
          <g opacity=".2">
            <path d="M619.85,244.22s-4.15,18.12-26.49,37.09c-1.79,1.52-3.69,2.9-5.65,4.19-8.27,5.41-36.89,26.6-39.93,62.33,0,0-6.45-58.63,39.98-80.8,5.68-2.71,11.19-5.76,16.4-9.29,5.81-3.93,12.29-8.92,15.69-13.52Z"></path>
          </g>
          <path d="M678.02,294.08s-6.25,20.59-29.48,36.83l-11.65-8.57,6.7,11.8c-19.74,11.99-50.03,20.38-95.8,13.69,0,0,0,0,0,0,.38-.8,25.96-54.53,84.11-49.58,0,0,33.24,.42,46.12-4.16Z" fill="#0071f2"></path>
          <g opacity=".2">
            <path d="M678.02,294.08s-6.25,20.59-29.48,36.83l-11.65-8.57,6.7,11.8c-19.74,11.99-50.03,20.38-95.8,13.69,0,0,0,0,0,0,.38-.8,25.96-54.53,84.11-49.58,0,0,33.24,.42,46.12-4.16Z" fill="#fff"></path>
          </g>
          <g opacity=".2">
            <path d="M678.02,294.08s-6.25,20.59-29.48,36.83l-11.65-8.57,6.7,11.8c-19.74,11.99-50.03,20.38-95.8,13.69,0,0,0,0,0,0,.42-.59,22.19-30.49,62.92-32.96,0,0,44.46,.42,67.31-20.78Z" fill="#fff"></path>
          </g>
          <path d="M682.59,380.09s-.02,.01-.05,.04c-.89,.84-15,13.68-42.34,14.09,0,0,0-8.31-4.57-14.54l-.42,13.3s-17.49-.37-45.3-20.2c-2.93-2.09-5.73-4.36-8.39-6.78-5.53-5.02-19.19-16.13-33.75-18.17,0,0,45.89-25.49,83.7,1.1,0,0,32.41,24.51,51.11,31.16Z" fill="#0071f2"></path>
          <g opacity=".2">
            <path d="M682.59,380.09s-.02,.01-.05,.04c-7.98-.77-24.8-2.9-38.6-8.06-6.6-2.47-12.8-5.89-18.54-9.97-7.99-5.68-36.01-22.51-77.62-14.28,0,0,45.89-25.49,83.7,1.1,0,0,32.41,24.51,51.11,31.16Z"></path>
          </g>
          <path d="M519.76,356.34l.42-8.73-4.99,10.8-18.7,10.39,.42-6.65-3.74,8.31-2.49,2.08-.83-12.05-5.4,15.79-16.2,9.56-1.25-13.71-4.16,17.45-22.44,12.88s.42-7.48,1.66-14.13l8.73-5.82-7.48,1.25s2.08-11.22,6.65-16.2l16.62-5.82h-13.3l3.74-4.99h7.48l-5.82-3.32s11.22-14.54,28.25-21.19l12.05,4.16-4.57-7.06s34.07-6.23,53.6,17.87c0,0-17.87,2.08-28.25,9.14Z" fill="#0071f2"></path>
          <g opacity=".2">
            <path d="M548.01,347.2c-63.57-23.27-107.61,55.26-107.61,55.26,0,0,.42-7.48,1.66-14.13l8.73-5.82-7.48,1.25s2.08-11.22,6.65-16.2l16.62-5.82h-13.3l3.74-4.99h7.48l-5.82-3.32s11.22-14.54,28.25-21.19l12.05,4.16-4.57-7.06s34.07-6.23,53.6,17.87Z" fill="#fff"></path>
          </g>
          <path d="M635.23,434.52s-24.51,4.99-39.89-7.89l3.32-14.13-6.23,12.05s-16.2-12.88-21.19-36.98c0,0-5.71-23.57-23.46-39.74,0,0,41.51-2.09,61.48,32.92,1.1,1.93,2.03,3.96,2.84,6.03,3.67,9.39,16.73,42.07,23.12,47.75Z" fill="#0071f2"></path>
          <g opacity=".2">
            <path d="M635.23,434.52s-20.36-7.89-28.67-28.25c0,0-21.56-52.06-58.77-58.44,0,0,41.51-2.09,61.48,32.92,1.1,1.93,2.03,3.96,2.84,6.03,3.67,9.39,16.73,42.07,23.12,47.75Z"></path>
          </g>
          <path d="M571.7,396.64h-2.91l2.91,4.99v4.16s-7.48-4.57-8.31-5.4,7.48,10.39,7.48,10.39c-.83,8.31-5.4,17.87-5.4,17.87l-7.06-5.82,4.57,11.63c-3.37,7.49-11.8,15.31-13.43,16.79-.18,.16-.28,.25-.28,.25l-3.74-9.97,4.99-8.73-6.65,4.57-2.49-10.8,8.73-12.88-9.97,7.89-.42-4.57,4.99-4.99-6.23,2.91,.42-22.02,7.06-7.06-7.06,1.66c-.76-12.1,7.43-35.55,8.91-39.68,.15-.41,.23-.63,.23-.63,12.05,10.8,17.45,24.1,17.45,24.1l-6.65,.42,8.31,2.91c5.4,11.63,4.57,22.02,4.57,22.02Z" fill="#0071f2"></path>
          <g opacity=".2">
            <path d="M571.7,396.64h-2.91l2.91,4.99v4.16s-7.48-4.57-8.31-5.4,7.48,10.39,7.48,10.39c-.83,8.31-5.4,17.87-5.4,17.87l-7.06-5.82,4.57,11.63c-3.37,7.49-11.8,15.31-13.43,16.79-.18,.16-.28,.25-.28,.25l-3.74-9.97,4.99-8.73-6.65,4.57-2.49-10.8,8.73-12.88-9.97,7.89-.42-4.57,4.99-4.99-6.23,2.91,.42-22.02,7.06-7.06-7.06,1.66c-.76-12.1,7.43-35.55,8.91-39.68,.15-.41,.23-.63,.23-.63,12.05,10.8,17.45,24.1,17.45,24.1l-6.65,.42,8.31,2.91c5.4,11.63,4.57,22.02,4.57,22.02Z" fill="#fff"></path>
          </g>
        </g>
        <g>
          <path d="M559.27,283.34s50.63,34.84,65.33,109.98l3.91-1.23,4.7-.5,.1-47.27s-14.7-51.18-74.04-60.98Z" fill="#0071f2"></path>
          <path d="M559.27,283.34s86.76,16.6,69.24,108.75l8.07-.4s27.77-100.72-77.31-108.34Z" fill="#0071f2"></path>
          <g opacity=".2">
            <path d="M559.27,283.34s86.76,16.6,69.24,108.75l8.07-.4s27.77-100.72-77.31-108.34Z"></path>
          </g>
          <path d="M628.51,392.08s47.27-64.1,112.05-2.58l-38.38,1.36s-29.13-22.05-70.78,5.17l-2.89-3.95Z" fill="#0071f2"></path>
          <path d="M700.31,439.2c-6.8-22.34-23.84-28.8-23.84-28.8l-45.07-14.36s30.65-23.47,63.29-9.16c15.14,6.64,26.43,19.8,31.3,35.6,6.8,22.06,9.44,59.38-41.5,75.37,0,0,4.02-4.16,8.34-10.61,9.47-14.14,12.44-31.77,7.48-48.04Z" fill="#0071f2"></path>
          <g opacity=".2">
            <path d="M700.31,439.2c-6.8-22.34-23.84-28.8-23.84-28.8l-45.07-14.36s30.65-23.47,63.29-9.16c15.14,6.64,26.43,19.8,31.3,35.6,6.8,22.06,9.44,59.38-41.5,75.37,0,0,4.02-4.16,8.34-10.61,9.47-14.14,12.44-31.77,7.48-48.04Z"></path>
          </g>
          <g opacity=".2">
            <path d="M705.72,480.69c-.06,0-.12-.02-.17-.06-.12-.09-.14-.26-.05-.38,22.49-28.91,6.14-57.66,5.97-57.95-13.66-25.38-34.26-30.73-49.21-30.73h-.17c-16.23,.04-29.4,6.2-29.53,6.27-.13,.06-.3,0-.36-.13-.06-.14,0-.3,.13-.36,.13-.06,13.39-6.27,29.74-6.32h.19c15.1,0,35.89,5.4,49.68,31.01,.17,.28,16.7,29.34-6.01,58.55-.05,.07-.13,.11-.21,.11Z"></path>
          </g>
          <path d="M630.59,408.56s18.16-5.11,29.5,11.06l4.26-3.43-15.24-15.24-16.88-.54-1.63,8.17Z" fill="#0071f2"></path>
          <g opacity=".2">
            <path d="M630.59,408.56s18.16-5.11,29.5,11.06l4.26-3.43-15.24-15.24-16.88-.54-1.63,8.17Z"></path>
          </g>
          <path d="M618.61,397.67s-88.2,14.16-105.62,255.34h48.46s-17.42-171.5,66.97-243.91l-9.8-11.43Z" fill="#2f2e41"></path>
          <path d="M661.24,425.4c-3.67-26.85-26.29-23.65-26.29-23.65l-3.54-5.72s51.45-5.44,56.35,39.74c0,0,7.08,63.15-70.23,67.51,0,0,31.67-21.89,42.03-57.05,1.99-6.75,2.64-13.86,1.69-20.83Z" fill="#0071f2"></path>
          <g opacity=".2">
            <path d="M633.86,497.03c-.09,0-.17-.04-.22-.12-.09-.12-.05-.29,.07-.38,26.33-18.18,40.3-37.44,41.53-57.22,1.46-23.48-16.06-39.41-16.23-39.57-.11-.1-.12-.27-.02-.38,.1-.11,.27-.12,.38-.02,.18,.16,17.89,16.27,16.41,40.01-1.24,19.96-15.3,39.36-41.77,57.64-.05,.03-.1,.05-.15,.05Z" fill="#fff"></path>
          </g>
          <path d="M508.09,351.39s28.75-43.73,75.78-28.18c17.35,5.74,31.98,17.86,40.31,34.13,5,9.77,8.26,21.97,4.34,34.74l-9.84,.59s-28.91-67.42-110.58-41.28Z" fill="#0071f2"></path>
          <g opacity=".2">
            <path d="M508.09,351.39s28.75-43.73,75.78-28.18c17.35,5.74,31.98,17.86,40.31,34.13,5,9.77,8.26,21.97,4.34,34.74l-9.84,.59s-28.91-67.42-110.58-41.28Z"></path>
          </g>
          <g opacity=".2">
            <path d="M623.51,378.34c-.12,0-.22-.08-.26-.19-5.73-18.43-15.92-31.54-30.28-38.95-26.03-13.43-57.26-3.45-57.57-3.34-.15,.05-.3-.03-.34-.17-.05-.14,.03-.3,.17-.34,.31-.1,31.75-10.16,57.99,3.38,14.5,7.48,24.78,20.69,30.56,39.27,.04,.14-.04,.3-.18,.34-.03,0-.05,.01-.08,.01Z"></path>
          </g>
          <path d="M532.05,405.83s61.52-58.8,86.29-11.71l10.17-2.05s-13.17-59.75-67.61-33.07c0,0-27.22,13.07-28.86,46.82Z" fill="#0071f2"></path>
          <g opacity=".2">
            <path d="M532.05,406.11s-.07,0-.1-.02c-.14-.06-.21-.21-.15-.35,.14-.34,13.94-33.97,41.51-42.39,14.96-4.56,31.22-.99,48.34,10.62,.12,.08,.16,.25,.07,.38-.08,.12-.25,.16-.38,.07-16.98-11.52-33.08-15.07-47.87-10.55-27.32,8.34-41.03,41.73-41.16,42.07-.04,.11-.14,.17-.25,.17Z"></path>
          </g>
          <circle cx="631.41" cy="406.65" r="10.62" fill="#d1d3d4"></circle>
          <circle cx="618.34" cy="394.13" r="10.62" fill="#d1d3d4"></circle>
          <circle cx="624.33" cy="401.75" r="10.62" fill="#e6e7e8"></circle>
        </g>
        <g>
          <path d="M301.54,389.67s-36.07,24.82-46.54,78.34l-2.79-.88-3.35-.36-.07-33.67s10.47-36.46,52.74-43.44Z" fill="#0071f2"></path>
          <path d="M301.54,389.67s-61.81,11.82-49.33,77.47l-5.75-.29s-19.78-71.75,55.07-77.18Z" fill="#0071f2"></path>
          <g opacity=".2">
            <path d="M301.54,389.67s-61.81,11.82-49.33,77.47l-5.75-.29s-19.78-71.75,55.07-77.18Z"></path>
          </g>
          <path d="M252.22,467.14s-33.67-45.66-79.82-1.84l27.34,.97s20.75-15.71,50.42,3.68l2.06-2.81Z" fill="#0071f2"></path>
          <path d="M201.07,500.7c4.85-15.91,16.98-20.52,16.98-20.52l32.1-10.23s-21.83-16.72-45.08-6.52c-10.79,4.73-18.83,14.1-22.3,25.36-4.84,15.71-6.72,42.3,29.56,53.69,0,0-2.87-2.96-5.94-7.56-6.74-10.07-8.86-22.63-5.33-34.22Z" fill="#0071f2"></path>
          <g opacity=".2">
            <path d="M201.07,500.7c4.85-15.91,16.98-20.52,16.98-20.52l32.1-10.23s-21.83-16.72-45.08-6.52c-10.79,4.73-18.83,14.1-22.3,25.36-4.84,15.71-6.72,42.3,29.56,53.69,0,0-2.87-2.96-5.94-7.56-6.74-10.07-8.86-22.63-5.33-34.22Z"></path>
          </g>
          <g opacity=".2">
            <path d="M197.22,530.26c-.06,0-.11-.03-.15-.07-16.18-20.81-4.4-41.51-4.28-41.71,9.82-18.23,24.63-22.08,35.39-22.08,.05,0,.09,0,.14,0,11.65,.04,21.09,4.46,21.19,4.5,.1,.05,.14,.16,.09,.26s-.16,.14-.26,.09c-.09-.04-9.47-4.43-21.03-4.46h-.12c-10.64,0-25.32,3.81-35.05,21.88-.12,.21-11.77,20.69,4.25,41.29,.07,.08,.05,.21-.03,.27-.04,.03-.08,.04-.12,.04Z"></path>
          </g>
          <path d="M250.74,478.87s-12.94-3.64-21.01,7.88l-3.03-2.45,10.86-10.86,12.02-.39,1.16,5.82Z" fill="#0071f2"></path>
          <g opacity=".2">
            <path d="M250.74,478.87s-12.94-3.64-21.01,7.88l-3.03-2.45,10.86-10.86,12.02-.39,1.16,5.82Z"></path>
          </g>
          <path d="M259.27,471.12s62.83,10.08,75.24,181.89c-2.71,0-34.52,0-34.52,0,0,0,12.41-122.17-47.7-173.75l6.98-8.14Z" fill="#2f2e41"></path>
          <path d="M228.91,490.87c2.62-19.13,18.73-16.85,18.73-16.85l2.52-4.07s-36.65-3.88-40.14,28.31c0,0-5.04,44.99,50.03,48.09,0,0-22.56-15.59-29.94-40.64-1.42-4.81-1.88-9.87-1.2-14.84Z" fill="#0071f2"></path>
          <g opacity=".2">
            <path d="M248.41,541.9s-.08-.01-.11-.03c-18.86-13.02-28.87-26.84-29.75-41.06-1.05-16.91,11.56-28.39,11.69-28.5,.08-.07,.2-.06,.27,.02,.07,.08,.06,.2-.02,.27-.13,.11-12.61,11.47-11.56,28.19,.88,14.09,10.83,27.81,29.59,40.76,.09,.06,.11,.18,.05,.27-.04,.05-.1,.08-.16,.08Z" fill="#fff"></path>
          </g>
          <path d="M338,438.15s-20.48-31.15-53.98-20.07c-12.36,4.09-22.78,12.73-28.71,24.31-3.56,6.96-5.89,15.65-3.09,24.75l7.01,.42s20.59-48.02,78.77-29.41Z" fill="#0071f2"></path>
          <g opacity=".2">
            <path d="M338,438.15s-20.48-31.15-53.98-20.07c-12.36,4.09-22.78,12.73-28.71,24.31-3.56,6.96-5.89,15.65-3.09,24.75l7.01,.42s20.59-48.02,78.77-29.41Z"></path>
          </g>
          <g opacity=".2">
            <path d="M255.78,457.35s-.04,0-.06,0c-.1-.03-.16-.14-.13-.24,4.11-13.23,11.44-22.65,21.77-27.97,18.69-9.64,41.08-2.48,41.31-2.4,.1,.03,.16,.14,.12,.24-.03,.1-.14,.16-.24,.12-.22-.07-22.47-7.19-41.01,2.38-10.23,5.28-17.49,14.61-21.57,27.74-.03,.08-.1,.14-.19,.14Z"></path>
          </g>
          <path d="M320.94,476.93s-43.82-41.89-61.47-8.34l-7.25-1.46s9.38-42.56,48.16-23.56c0,0,19.39,9.31,20.56,33.35Z" fill="#0071f2"></path>
          <g opacity=".2">
            <path d="M320.94,477.13c-.08,0-.15-.05-.18-.12-.1-.24-9.86-24.03-29.32-29.97-10.54-3.21-22.01-.68-34.1,7.52-.09,.06-.21,.04-.27-.05-.06-.09-.04-.21,.05-.27,12.2-8.27,23.78-10.82,34.43-7.57,19.64,5.99,29.47,29.95,29.57,30.19,.04,.1,0,.21-.11,.25-.02,0-.05,.01-.07,.01Z"></path>
          </g>
          <circle cx="250.16" cy="477.52" r="7.56" fill="#d1d3d4"></circle>
          <circle cx="259.46" cy="468.6" r="7.56" fill="#d1d3d4"></circle>
          <circle cx="255.2" cy="474.03" r="7.56" fill="#e6e7e8"></circle>
        </g>
      </g>
      <rect x="84.2" y="652.4" width="721" height="1.55" fill="#2f2e41"></rect>
    </g>
  </g>
  <g id="d">
    <path d="M675.44,147.56c-.53-.05-1.05-.17-1.56-.33-.95-.25-2.24-.65-3.64-1.13s-2.67-1-3.57-1.33c-.5-.17-.98-.41-1.41-.71,.52,.11,1.02,.27,1.51,.47l3.6,1.33,3.6,1.24c.51,.1,1.01,.26,1.48,.47Z" fill="#2f2e41"></path>
    <path d="M676.68,146.22c-.53-.04-1.06-.14-1.56-.32-.93-.27-2.23-.65-3.64-1.15s-2.67-.99-3.57-1.33c-.5-.18-.97-.42-1.41-.71,.52,.09,1.03,.25,1.52,.47l3.59,1.27,3.6,1.24c.51,.13,1.01,.3,1.48,.53Z" fill="#2f2e41"></path>
    <path d="M636.69,133.66s2.35-2.47,4.25-2.8,17.49,2.24,17.49,2.24l25.21,9.52s-1.56,2.47-5.71,1.68-8.74-2.12-8.74-2.12c-2.51,1.48-5.37,2.27-8.29,2.28-4.71,0-10.66-1.16-14.13-4.87s-7.7-1.33-8.56-4.41c-.16-.76-.76-1.36-1.52-1.52Z" fill="#e0e0e0"></path>
    <path d="M698.41,105.92c-1.57,2.21-3.33,4.3-5.24,6.22-.52,.67-1.27,1.11-2.11,1.24,2.59-3.25,4.51-6.97,5.68-10.96-.81,1.21-1.67,2.4-2.56,3.55-.67,.86-1.38,1.68-2.15,2.47-2.12,1.94-4.46,3.63-6.97,5.04-1.82,1.23-3.73,2.33-5.72,3.28-2.86,1.13-5.77,2.11-8.73,2.93-1.33,.45-3.89,1.03-4.99,1.93-.51,.49-.95,1.04-1.33,1.64-3.48,4.73-8.02,8.59-13.25,11.28l8.13,4c3.62,.49,7.29-.41,10.28-2.51,2.95-2.1,5.39-4.83,7.14-8,.37-.8,.92-1.49,1.61-2.04,.64-.33,1.33-.58,2.04-.73,1.17-.37,2.23-1.02,3.09-1.89-.79,.31-1.67,.33-2.48,.08,2.57-.96,5.08-2.08,7.52-3.35,2.34-1.03,4.39-2.64,5.96-4.67-.96,.78-2.1,1.31-3.32,1.53,3.49-2.89,6.05-6.73,7.38-11.05Z" fill="#e0e0e0"></path>
    <path d="M640.84,132.86c-.16-.1-.36-.1-.52,0-.15,.11-.24,.27-.25,.45-.04,.37,.17,.71,.51,.85,.35,.11,.73-.02,.93-.33,.17-.33,.08-.73-.21-.96-.21-.12-.44-.18-.68-.19" fill="#2f2e41"></path>
    <path d="M637.4,133c-1.23-.12-2.47,.19-3.51,.88-1.17,1.09-1.59,2.21-1.41,2.32s.52-.61,2.36-.76c1.21-.07,2.42-.07,3.63,0l-1.07-2.44Z" fill="#0071f2"></path>
    <path d="M656.08,130.27c-2.19-3.39-4.42-6.77-6.66-10.16-.8-1.14-1.48-2.37-2.01-3.67-1-2.75-.67-5.85-1.68-8.6-.35,.63-.69,1.24-1.05,1.85,0-1.8-.26-3.6-.75-5.33-.4,.71-.79,1.43-1.17,2.13,.12-2.51-.26-5.02-1.12-7.38-.94,.67-1.6,1.67-1.85,2.8-.2-2.28-.57-4.53-1.09-6.76-3.55,4.72-4.31,10.92-4.44,16.81-.07,1.15,.02,2.31,.27,3.44,.37,1.22,.94,2.36,1.69,3.39,3.05,4.53,6.98,8.57,8.93,13.68l13.08,2.95c-.51-.51-1.85-4.73-2.13-5.15Z" fill="#e0e0e0"></path>
    <path d="M658.34,135.39h-.13s.11,.04,.13,0Z" fill="#e0e0e0"></path>
    <path d="M676.5,128.03c.37-.8,.92-1.49,1.61-2.04,.64-.33,1.33-.58,2.04-.73,1.21-.36,2.31-1.01,3.2-1.89-.79,.31-1.67,.33-2.48,.08,2.57-.96,5.08-2.08,7.52-3.35,2.34-1.03,4.39-2.64,5.96-4.67-.96,.78-2.1,1.31-3.32,1.53,3.49-2.89,6.05-6.73,7.38-11.05-1.57,2.21-3.33,4.3-5.24,6.22-.52,.67-1.27,1.11-2.11,1.24,2.59-3.25,4.51-6.97,5.68-10.96-.81,1.21-1.67,2.4-2.56,3.55-.67,.86-1.38,1.68-2.15,2.47-2.12,1.94-4.46,3.63-6.97,5.04-1.89,1.15-3.79,2.31-5.77,3.29l8.5-1.52-5.11,3.65,4.76-.8s-8.48,3.92-10.37,6.52c-1.1,1.38-1.64,3.12-1.49,4.88l.91-1.47Z" fill="#2f2e41"></path>
    <path d="M647.45,116.45c-1-2.75-.67-5.85-1.68-8.6-.35,.63-.69,1.24-1.05,1.85,0-1.8-.26-3.6-.75-5.33-.4,.71-.79,1.43-1.17,2.13,.12-2.51-.26-5.02-1.12-7.38-.96,.66-1.64,1.66-1.91,2.8-.2-2.28-.57-4.53-1.09-6.76-3.55,4.72-4.31,10.92-4.44,16.81-.07,1.15,.02,2.31,.27,3.44l1.61-4.47s1.85-5.88,2.84-3.11,3.16,7.41,3.16,7.41l.44-4.24s1.33,4.13,2.67,4.96c.64,.47,1.45,.64,2.23,.48Z" fill="#2f2e41"></path>
    <path d="M665.03,122.16h0c-.04,.07-.09,.15-.15,.21-.12,.17-.33,.43-.59,.75-.53,.64-1.33,1.56-2.31,2.67s-2.19,2.43-3.57,3.81c-.71,.71-1.44,1.43-2.28,2.12-.41,.37-.85,.68-1.33,.95-.3,.06-.62,.06-.92,0-.28,0-.56,0-.84-.08-4.52-.55-8.56-1.33-11.5-1.68-.64-.07-1.29,.07-1.85,.4-.44,.24-.86,.51-1.25,.81-.67,.51-.99,.83-1.01,.81s.07-.11,.21-.27c.22-.23,.46-.45,.71-.65,.38-.33,.8-.63,1.24-.88,.59-.37,1.29-.54,1.99-.49,2.97,.31,7.01,1.04,11.52,1.57,.28,0,.55,0,.83,.08,.25,.03,.5,.03,.75,0,.48-.24,.93-.54,1.33-.89,.81-.68,1.56-1.33,2.27-2.08,1.33-1.33,2.67-2.67,3.61-3.75l2.39-2.59,.65-.71,.17-.19h0l-.05,.07Z" fill="#2f2e41"></path>
    <path d="M682.77,118.53c-.05,.09-.11,.17-.19,.24-.12,.15-.33,.33-.6,.59-.81,.66-1.71,1.21-2.67,1.63-1.4,.61-2.85,1.1-4.33,1.45-.86,.21-1.71,.47-2.55,.79-.88,.34-1.7,.83-2.41,1.45-1.32,1.28-2.53,2.69-3.59,4.2-.9,1.22-1.94,2.33-3.09,3.32-.79,.64-1.64,1.22-2.53,1.72-.32,.19-.57,.31-.75,.4l-.27,.11c.3-.23,.61-.44,.93-.63,.85-.56,1.67-1.18,2.44-1.84,1.13-1,2.15-2.11,3.05-3.32,1.05-1.55,2.26-2.98,3.61-4.28,.75-.64,1.6-1.16,2.52-1.52,.84-.31,1.71-.57,2.59-.76,1.47-.33,2.92-.77,4.32-1.33,.95-.39,1.84-.9,2.67-1.51,.53-.44,.81-.73,.84-.71Z" fill="#2f2e41"></path>
    <path d="M657.81,141.39c-.55,.18-1.14,.11-1.64-.17-.87-.39-1.33-1.05-1.23-1.11s.6,.43,1.33,.76,1.53,.41,1.53,.52Z" fill="#2f2e41"></path>
    <path d="M661.38,141.81c-1.89,.29-3.79-.4-5.05-1.83,.07-.09,1.01,.71,2.41,1.21s2.64,.49,2.64,.61Z" fill="#2f2e41"></path>
    <path d="M743.33,99.81c-.61-.05-1.22-.01-1.81,.11-.99,.28-1.84,.9-2.41,1.75,.3,.05,.62,.05,.92,0,1.22-.14,2.45-.19,3.68-.15,.13-.6,0-1.23-.37-1.73" fill="#0071f2"></path>
    <path d="M763.83,104.77c-4.22-.65-8.37-1.68-12.41-3.07-2.75,2.59-4.55,6.14-7.65,8.29-1.49,.81-2.94,1.7-4.33,2.67-1.65,1.7-2.85,3.8-3.47,6.09-2.15,6.07-3.93,12.26-5.33,18.54l4.23-5.56-.15,3.35,5.83-9.44,.57,3.04,13.33-11.78c2.45-2.21,4.73-4.59,6.84-7.13l2.55-5Z" fill="#e0e0e0"></path>
    <path d="M752.45,98.34c1.64-2.16,2.96-4.55,3.92-7.09,1.75-4.51,2.27-13.82,7.46-17.61s18.15-12.98,18.15-12.98l-5.33,7.57,6.54-5.24c-1.35,2.8-3.23,5.31-5.52,7.41l5.27-2.47s-.65,5.68-3.04,6.06c-.69,.64-1.31,1.36-1.84,2.13l.59,1.33s-6.26,13.33-7.92,16-5.9,7.92-5.9,7.92l-12.38-3.04Z" fill="#e0e0e0"></path>
    <path d="M743.13,100.22c0-.19,.29-2.52,4.09-2.67,1.85-.13,3.7,0,5.52,.37,0,0,10.86,2.89,12.41,3.75s12.57-1.76,12.57-1.76c0,0,4.99,8.76-1.55,14.49s-10.18,3.65-10.18,3.65c0,0-.56-6.85-3.36-8.58,0,0-4.85,0-7.16-1.19s-6.6-5.16-7.46-5.73-3.36-.21-4.24-.85c-.52-.29-.78-.9-.64-1.48Z" fill="#e0e0e0"></path>
    <path d="M746.38,99.66c0,.42-.34,.76-.76,.76,0,0,0,0-.01,0-.41,0-.75-.32-.76-.73,0,0,0-.02,0-.03,0-.42,.33-.77,.75-.77,0,0,0,0,.01,0,.43,0,.77,.35,.77,.77Z" fill="#2f2e41"></path>
    <path d="M778.59,77.51l-.59-1.33c.53-.78,1.15-1.49,1.84-2.13,2.39-.39,3.04-6.06,3.04-6.06l-5.27,2.47c2.29-2.1,4.16-4.61,5.52-7.41l-6.48,5.2,5.33-7.57s-12.94,9.17-18.14,12.94l8.34-2.67-1.56,4,6.58-2.83c-.81,1.17-1.04,2.64-.64,4,.72,1.81,2.01,1.4,2.01,1.4Z" fill="#2f2e41"></path>
    <path d="M741.09,128.75l-.57-3.04-5.83,9.44,.15-3.35-4.23,5.56c1.4-6.28,3.18-12.47,5.33-18.54l-.12,5.63,3.25-2.37v4.09l2.84-2.67-.83,5.25Z" fill="#2f2e41"></path>
    <path d="M771.91,111.83s-.43-.27-1.15-.59-1.8-.6-2.93-1.13c-1.39-.57-2.66-1.43-3.71-2.51,0-.08,1.64,1.16,3.85,2.17,1.11,.51,2.17,.83,2.89,1.24s1.08,.79,1.04,.81Z" fill="#2f2e41"></path>
    <path d="M773.35,109.45c-1.45-.13-2.86-.49-4.2-1.07-1.38-.47-2.67-1.16-3.83-2.05,0-.09,1.75,.85,4,1.71s4.05,1.29,4.03,1.41Z" fill="#2f2e41"></path>
    <path d="M763.1,109.09c-.19,.11-.39,.2-.6,.25-.56,.18-1.12,.33-1.69,.45-.87,.2-1.78,.24-2.67,.12-1.06-.2-2.07-.6-2.97-1.2-1.67-.99-3.21-2.17-4.6-3.52-.53-.52-.93-.96-1.2-1.27s-.4-.51-.37-.53,.65,.64,1.76,1.61c1.42,1.28,2.96,2.41,4.6,3.39,.86,.58,1.82,.98,2.84,1.19,.84,.13,1.69,.13,2.53,0,1.48-.28,2.36-.56,2.37-.49Z" fill="#2f2e41"></path>
    <path d="M771.52,72.85c-.24,.32-.5,.62-.8,.89-.57,.6-1.33,1.33-2.27,2.33s-2.13,2.13-3.37,3.43c-.66,.65-1.13,1.48-1.33,2.39-.15,1-.17,2.01-.07,3.01,.12,1.98-.03,3.97-.47,5.91-.33,1.58-.94,3.08-1.79,4.45-.58,.95-1.29,1.8-2.11,2.55-.23,.19-.46,.38-.71,.55-.16,.12-.25,.17-.27,.16,1.12-.96,2.09-2.08,2.85-3.35,.82-1.37,1.4-2.86,1.72-4.43,.41-1.91,.55-3.87,.43-5.83-.1-1.03-.07-2.07,.08-3.09,.21-.97,.7-1.86,1.4-2.56,1.33-1.33,2.47-2.43,3.44-3.39l2.36-2.25c.28-.28,.58-.53,.89-.77Z" fill="#2f2e41"></path>
    <path d="M777.65,79.26c-.14,.15-.29,.27-.47,.37-.43,.31-.87,.6-1.33,.87-3.13,1.79-6.6,2.91-10.18,3.29-.69,0-1.24,.09-1.63,.09-.2,.04-.4,.04-.6,0,0,0,.84-.12,2.19-.33,1.76-.26,3.49-.67,5.19-1.2,1.69-.56,3.32-1.24,4.91-2.05,1.19-.68,1.91-1.12,1.93-1.04Z" fill="#2f2e41"></path>
    <path d="M777.99,73.93s0,.21-.32,.55c-.38,.45-.83,.83-1.33,1.12-.73,.43-1.49,.81-2.27,1.13-.87,.39-1.83,.79-2.85,1.19-2.03,.81-3.91,1.47-5.27,1.91-.73,.27-1.47,.5-2.23,.67,.68-.36,1.4-.66,2.13-.91l5.23-2.01,2.85-1.15c.77-.31,1.53-.66,2.27-1.05,.67-.38,1.28-.86,1.79-1.44Z" fill="#2f2e41"></path>
    <path d="M773.04,86.08s-.33,.49-1.19,.84c-1.1,.37-2.23,.67-3.37,.89-1.13,.31-2.28,.5-3.45,.56-.5,.05-.99-.08-1.41-.35,.44,.05,.89,.08,1.33,.08,1.14-.13,2.28-.35,3.39-.65,1.33-.31,2.53-.51,3.36-.79,.46-.17,.91-.36,1.35-.59Z" fill="#2f2e41"></path>
    <path d="M737.84,123.67c.05-.3,.14-.6,.25-.88,.3-.78,.69-1.51,1.16-2.2,.7-1.03,1.56-1.93,2.56-2.67,1.25-.86,2.59-1.58,4-2.15,1.38-.57,2.69-1.27,3.92-2.11,.98-.7,1.88-1.52,2.67-2.44,.7-.85,1.35-1.74,1.96-2.67-.09,.29-.21,.57-.37,.83-.38,.73-.82,1.42-1.33,2.07-.78,.96-1.67,1.81-2.67,2.55-1.25,.87-2.59,1.59-4,2.16-1.4,.54-2.73,1.22-3.99,2.04-.98,.7-1.84,1.56-2.55,2.53-.63,.93-1.17,1.91-1.61,2.93Z" fill="#2f2e41"></path>
    <path d="M743.62,125.22c.25-1.28,.43-2.57,.55-3.87,0-1.3-.1-2.6-.27-3.89,.53,1.23,.75,2.57,.64,3.91,0,1.34-.31,2.66-.92,3.85Z" fill="#2f2e41"></path>
    <path d="M748.08,121.59c-.1-.94-.15-1.89-.15-2.84-.13-.94-.21-1.89-.24-2.84,.4,.88,.6,1.84,.6,2.81,.13,.96,.06,1.94-.21,2.87Z" fill="#2f2e41"></path>
    <path d="M751.8,118.59c-.23-.93-.41-1.87-.53-2.81-.25-.92-.44-1.85-.57-2.8,.48,.82,.8,1.73,.93,2.67,.26,.96,.32,1.96,.17,2.95Z" fill="#2f2e41"></path>
    <path d="M755.94,112.37c0,.08-.53-.23-1.05-.68s-.88-.89-.81-.97,.55,.24,1.07,.69,.87,.89,.8,.96Z" fill="#2f2e41"></path>
    <path d="M765.86,99.36c-.9-.44-1.75-.99-2.53-1.63-.85-.55-1.63-1.2-2.32-1.93,.91,.43,1.76,.98,2.53,1.63,.85,.55,1.63,1.2,2.32,1.93Z" fill="#2f2e41"></path>
    <path d="M770.67,93.15c-1.29,.65-2.71,.99-4.16,.97-1.2,0-2.25-.11-3.03-.15-.42,0-.83-.03-1.24-.11,.4-.14,.83-.19,1.25-.16h3c1.4-.1,2.8-.28,4.17-.56Z" fill="#2f2e41"></path>
  </g>
</svg>
